<svg width="20" height="20" viewBox="0 0 20 20" fill="none" xmlns="http://www.w3.org/2000/svg">
<path d="M12.5 1.66669C13.0694 1.66669 13.5722 1.95227 13.8728 2.38803L13.9436 2.50002H15C15.8786 2.50002 16.5985 3.17992 16.6621 4.0423L16.6666 4.16669V14.1667C16.6666 16.4073 14.898 18.2349 12.6807 18.3295L12.5 18.3334H4.99998C4.12134 18.3334 3.40151 17.6535 3.33788 16.7911L3.33331 16.6667V4.16669C3.33331 3.28805 4.01321 2.56822 4.87559 2.50459L4.99998 2.50002H6.05628C6.32229 2.04017 6.8017 1.71922 7.35909 1.67256L7.49998 1.66669H12.5ZM5.83331 4.16669H4.99998V16.6667H12.5C13.8807 16.6667 15 15.5474 15 14.1667V4.16669H14.1666C14.1666 5.08716 13.4205 5.83335 12.5 5.83335H7.49998C6.5795 5.83335 5.83331 5.08716 5.83331 4.16669ZM9.99998 11.6667C10.4602 11.6667 10.8333 12.0398 10.8333 12.5C10.8333 12.9274 10.5116 13.2796 10.0972 13.3277L9.99998 13.3334H7.49998C7.03975 13.3334 6.66665 12.9603 6.66665 12.5C6.66665 12.0726 6.98835 11.7204 7.4028 11.6723L7.49998 11.6667H9.99998ZM12.5 8.33335C12.9602 8.33335 13.3333 8.70644 13.3333 9.16669C13.3333 9.62694 12.9602 10 12.5 10H7.49998C7.03975 10 6.66665 9.62694 6.66665 9.16669C6.66665 8.70644 7.03975 8.33335 7.49998 8.33335H12.5ZM12.5 3.33335H7.49998V4.16669H12.5V3.33335Z" fill="#8491A5"/>
</svg>
