<svg width="20" height="20" viewBox="0 0 20 20" fill="none" xmlns="http://www.w3.org/2000/svg">
<path d="M5.83331 2.50002V3.33335C5.83331 4.25383 6.5795 5.00002 7.49998 5.00002H12.5C13.4205 5.00002 14.1666 4.25383 14.1666 3.33335V2.50002H15C15.9205 2.50002 16.6666 3.24621 16.6666 4.16669V13.3334C16.6666 16.0948 14.4281 18.3334 11.6666 18.3334H4.99998C4.0795 18.3334 3.33331 17.5872 3.33331 16.6667V4.16669C3.33331 3.24621 4.0795 2.50002 4.99998 2.50002H5.83331ZM9.99998 11.6667H7.49998C7.03975 11.6667 6.66665 12.0398 6.66665 12.5C6.66665 12.9603 7.03975 13.3334 7.49998 13.3334H9.99998C10.4602 13.3334 10.8333 12.9603 10.8333 12.5C10.8333 12.0398 10.4602 11.6667 9.99998 11.6667ZM12.5 8.33335H7.49998C7.03975 8.33335 6.66665 8.70644 6.66665 9.16669C6.66665 9.59406 6.98835 9.94628 7.4028 9.99441L7.49998 10H12.5C12.9602 10 13.3333 9.62694 13.3333 9.16669C13.3333 8.70644 12.9602 8.33335 12.5 8.33335ZM11.6666 1.66669C12.1269 1.66669 12.5 2.03979 12.5 2.50002C12.5 2.92738 12.1783 3.27961 11.7638 3.32775L11.6666 3.33335H8.33331C7.87308 3.33335 7.49998 2.96025 7.49998 2.50002C7.49998 2.07266 7.82168 1.72043 8.23613 1.67229L8.33331 1.66669H11.6666Z" fill="white" fill-opacity="0.5"/>
</svg>
