<svg width="20" height="20" viewBox="0 0 20 20" fill="none" xmlns="http://www.w3.org/2000/svg">
<path d="M15.8334 2.5C17.2141 2.5 18.3334 3.61929 18.3334 5V13.3333C18.3334 14.7141 17.2141 15.8333 15.8334 15.8333H6.11113L3.33335 17.9167C2.64665 18.4317 1.66669 17.9418 1.66669 17.0833V5C1.66669 3.61929 2.78598 2.5 4.16669 2.5H15.8334ZM15.8334 4.16667H4.16669C3.70645 4.16667 3.33335 4.53977 3.33335 5V15.8333L5.11113 14.5C5.39963 14.2837 5.75051 14.1667 6.11113 14.1667H15.8334C16.2936 14.1667 16.6667 13.7936 16.6667 13.3333V5C16.6667 4.53977 16.2936 4.16667 15.8334 4.16667ZM9.16669 10C9.62694 10 10 10.3731 10 10.8333C10 11.2607 9.67833 11.6129 9.26387 11.6611L9.16669 11.6667H6.66669C6.20645 11.6667 5.83335 11.2936 5.83335 10.8333C5.83335 10.406 6.15506 10.0537 6.5695 10.0056L6.66669 10H9.16669ZM13.3334 6.66667C13.7936 6.66667 14.1667 7.03977 14.1667 7.5C14.1667 7.96023 13.7936 8.33333 13.3334 8.33333H6.66669C6.20645 8.33333 5.83335 7.96023 5.83335 7.5C5.83335 7.03977 6.20645 6.66667 6.66669 6.66667H13.3334Z" fill="#8491A5"/>
</svg>
